<?xml version="1.0" encoding="utf-8"?>
<!-- Generator: Adobe Illustrator 18.0.0, SVG Export Plug-In . SVG Version: 6.00 Build 0)  -->
<!DOCTYPE svg PUBLIC "-//W3C//DTD SVG 1.1//EN" "http://www.w3.org/Graphics/SVG/1.1/DTD/svg11.dtd">
<svg version="1.1" id="Capa_1" xmlns="http://www.w3.org/2000/svg" xmlns:xlink="http://www.w3.org/1999/xlink" x="0px" y="0px"
	 viewBox="0 0 48 48" enable-background="new 0 0 48 48" xml:space="preserve">
<g>
	<g>
		<path d="M24,31.4c-6.1,0-11.8-0.7-16-2c-4.6-1.4-7-3.2-7-5.3c0-2,2.2-3.8,6.5-5.1c0.3-0.1,0.6,0.1,0.7,0.3
			c0.1,0.3-0.1,0.6-0.3,0.7C4.1,21.2,2,22.7,2,24.1c0,1.5,2.3,3.1,6.2,4.3c4.2,1.3,9.8,2,15.7,2s11.5-0.7,15.7-2
			c3.9-1.2,6.2-2.8,6.2-4.3c0-1.5-2.1-3-5.8-4.1c-0.3-0.1-0.4-0.4-0.3-0.7s0.4-0.4,0.7-0.3c4.3,1.4,6.5,3.1,6.5,5.1
			c0,2.1-2.4,3.9-7,5.3C35.8,30.7,30.1,31.4,24,31.4z"/>
	</g>
	<g>
		<path d="M23.7,45.4c-2.9,0-5.3-4.4-6.6-11.9c0-0.3,0.1-0.6,0.4-0.6c0.3,0,0.6,0.1,0.6,0.4c1.1,6.6,3.3,11,5.5,11s4.4-4.4,5.5-11
			c0-0.3,0.3-0.5,0.6-0.4c0.3,0,0.5,0.3,0.4,0.6C29.1,41,26.6,45.4,23.7,45.4z"/>
	</g>
	<g>
		<path d="M29.8,15.1c-0.3,0-0.5-0.2-0.5-0.4c-1.1-6.6-3.3-11-5.5-11s-4.4,4.4-5.5,11c0,0.3-0.3,0.5-0.6,0.4c-0.3,0-0.5-0.3-0.4-0.6
			C18.4,7,20.8,2.6,23.7,2.6c2.9,0,5.3,4.4,6.6,11.9C30.3,14.8,30.1,15,29.8,15.1C29.8,15.1,29.8,15.1,29.8,15.1z"/>
	</g>
	<g>
		<path d="M14.8,21.6h0.9c0.4,0,0.8-0.1,1-0.3c0.3-0.2,0.4-0.5,0.4-1c0-0.4-0.1-0.7-0.3-0.9c-0.2-0.2-0.5-0.3-1-0.3
			c-0.4,0-0.7,0.1-0.9,0.3c-0.2,0.2-0.4,0.5-0.4,0.9H13c0-0.4,0.1-0.8,0.3-1.2c0.2-0.4,0.6-0.6,1-0.8s0.9-0.3,1.4-0.3
			c0.8,0,1.5,0.2,2,0.6c0.5,0.4,0.7,1,0.7,1.8c0,0.4-0.1,0.7-0.4,1.1c-0.2,0.3-0.6,0.6-0.9,0.8c0.5,0.2,0.8,0.4,1.1,0.8
			c0.2,0.3,0.4,0.8,0.4,1.2c0,0.8-0.3,1.4-0.8,1.8c-0.5,0.5-1.2,0.7-2.1,0.7c-0.8,0-1.5-0.2-2-0.7c-0.5-0.4-0.8-1-0.8-1.7h1.4
			c0,0.4,0.1,0.7,0.4,0.9c0.3,0.2,0.6,0.3,1,0.3c0.4,0,0.8-0.1,1-0.3c0.3-0.2,0.4-0.6,0.4-1c0-0.4-0.1-0.8-0.4-1
			c-0.3-0.2-0.7-0.4-1.2-0.4h-0.8V21.6z"/>
		<path d="M24.3,17.9v1.2h-0.2c-0.8,0-1.4,0.2-1.9,0.7c-0.5,0.4-0.8,1-0.8,1.8c0.5-0.5,1-0.7,1.7-0.7c0.8,0,1.3,0.3,1.8,0.8
			c0.4,0.5,0.7,1.2,0.7,2c0,0.9-0.3,1.6-0.8,2.1c-0.5,0.5-1.2,0.8-2,0.8c-0.8,0-1.5-0.3-2.1-0.9C20.2,25,20,24.2,20,23.2v-0.5
			c0-1.5,0.4-2.7,1.1-3.5c0.7-0.8,1.8-1.3,3.1-1.3H24.3z M22.8,22c-0.3,0-0.6,0.1-0.9,0.3c-0.3,0.2-0.4,0.4-0.6,0.7v0.4
			c0,0.6,0.1,1.1,0.4,1.5c0.3,0.4,0.6,0.6,1,0.6s0.8-0.2,1-0.5c0.2-0.3,0.4-0.7,0.4-1.2c0-0.5-0.1-0.9-0.4-1.3
			C23.6,22.1,23.2,22,22.8,22z"/>
		<path d="M32.2,22.9c0,1.2-0.2,2.1-0.7,2.8c-0.5,0.6-1.2,0.9-2.1,0.9c-0.9,0-1.6-0.3-2.1-0.9c-0.5-0.6-0.7-1.5-0.7-2.7v-1.5
			c0-1.2,0.2-2.1,0.7-2.7c0.5-0.6,1.2-0.9,2.1-0.9c0.9,0,1.6,0.3,2.1,0.9c0.5,0.6,0.7,1.5,0.7,2.7V22.9z M30.8,21.3
			c0-0.8-0.1-1.4-0.3-1.8c-0.2-0.4-0.6-0.6-1-0.6c-0.5,0-0.8,0.2-1,0.5c-0.2,0.4-0.3,0.9-0.3,1.6v1.9c0,0.8,0.1,1.4,0.3,1.8
			c0.2,0.4,0.6,0.6,1,0.6c0.5,0,0.8-0.2,1-0.5c0.2-0.4,0.3-0.9,0.3-1.7V21.3z"/>
		<path d="M33.6,19.9c0-0.6,0.2-1.1,0.6-1.5c0.4-0.4,0.9-0.6,1.5-0.6c0.6,0,1.1,0.2,1.5,0.6c0.4,0.4,0.6,0.9,0.6,1.5v0.4
			c0,0.6-0.2,1.1-0.5,1.5c-0.4,0.4-0.9,0.6-1.5,0.6c-0.6,0-1.1-0.2-1.5-0.6c-0.4-0.4-0.6-0.9-0.6-1.5V19.9z M34.6,20.4
			c0,0.4,0.1,0.7,0.3,0.9c0.2,0.2,0.4,0.3,0.7,0.3c0.3,0,0.5-0.1,0.7-0.3c0.2-0.2,0.3-0.5,0.3-0.9v-0.5c0-0.4-0.1-0.7-0.3-0.9
			c-0.2-0.2-0.4-0.3-0.7-0.3c-0.3,0-0.5,0.1-0.7,0.3c-0.2,0.2-0.3,0.5-0.3,0.9V20.4z"/>
	</g>
	<g>
		<path d="M29.8,15.5c-0.1,0-0.2,0-0.3-0.1l-2.4-2c-0.2-0.2-0.3-0.5-0.1-0.7c0.2-0.2,0.5-0.3,0.7-0.1l2,1.7l1.7-2
			c0.2-0.2,0.5-0.3,0.7-0.1c0.2,0.2,0.3,0.5,0.1,0.7l-2,2.4C30.1,15.5,30,15.5,29.8,15.5C29.8,15.5,29.8,15.5,29.8,15.5z"/>
	</g>
	<g>
		<path d="M7,22.7c-0.1,0-0.2,0-0.2-0.1c-0.3-0.1-0.4-0.5-0.2-0.7l1.2-2.3l-2.3-1.2c-0.3-0.1-0.4-0.5-0.2-0.7s0.5-0.4,0.7-0.2
			l2.8,1.5C8.9,19,9,19.4,8.9,19.6l-1.5,2.8C7.3,22.6,7.1,22.7,7,22.7z"/>
	</g>
</g>
</svg>
